<svg data-v-0dd9719b="" version="1.0" xmlns="http://www.w3.org/2000/svg" xmlns:xlink="http://www.w3.org/1999/xlink" width="100%" height="100%" viewBox="0 0 340.000000 250.000000" preserveAspectRatio="xMidYMid meet" color-interpolation-filters="sRGB" style="margin: auto;"> <rect data-v-0dd9719b="" x="0" y="0" width="100%" height="100%" fill="#fdfcfa" fill-opacity="1" class="background"></rect> <rect data-v-0dd9719b="" x="0" y="0" width="100%" height="100%" fill="url(#watermark)" fill-opacity="1" class="watermarklayer"></rect> <g data-v-0dd9719b="" fill="#3386b2" class="pmspacesvg" transform="translate(76.19085693359375,31.19085693359375)"><!----> <g mask="url(#16ff8aa2-5452-4df8-941c-3acdb72aff04)"><circle data-gra="graph-name" fill="#3386b2" cx="93.80913987207317" cy="93.80913987207317" r="93.80913987207317"></circle> <g fill="#fdfcfa" transform="translate(10.449139261721612,85.14413991022015)"><g data-gra="path-name" fill-rule="" class="tp-name"><g transform="scale(1)"><g><path d="M15.21-1.93Q15.5-1.5 15.5-1.09L15.5-1.09Q15.5-0.55 15.06-0.19 14.62 0.17 14.02 0.17L14.02 0.17Q13.64 0.17 13.3-0.01 12.95-0.19 12.72-0.55L12.72-0.55 9.55-5.35Q9.08-6.11 8.54-6.42 8.01-6.73 7.15-6.73L7.15-6.73 4.82-6.73 4.82-1.4Q4.82-0.69 4.42-0.27 4.02 0.14 3.33 0.14L3.33 0.14Q2.64 0.14 2.22-0.27 1.81-0.69 1.81-1.4L1.81-1.4 1.81-15.31Q1.81-16 2.2-16.38 2.59-16.76 3.28-16.76L3.28-16.76 9.22-16.76Q12.07-16.76 13.56-15.48 15.04-14.21 15.04-11.81L15.04-11.81Q15.04-9.86 13.94-8.62 12.83-7.37 10.81-7.01L10.81-7.01Q11.5-6.84 12.03-6.42 12.55-5.99 13.05-5.23L13.05-5.23 15.21-1.93ZM8.79-9.08Q10.53-9.08 11.34-9.73 12.14-10.39 12.14-11.74L12.14-11.74Q12.14-13.12 11.34-13.75 10.53-14.38 8.79-14.38L8.79-14.38 4.8-14.38 4.8-9.08 8.79-9.08ZM18.18 0.14Q16.35 0.21 16.35-1.12L16.35-1.12Q16.35-1.69 16.65-1.98 16.95-2.28 17.59-2.33L17.59-2.33 18.35-2.38Q19.32-2.42 19.82-2.99 20.32-3.57 20.32-4.73L20.32-4.73 20.32-15.35Q20.32-16.04 20.74-16.46 21.15-16.87 21.84-16.87L21.84-16.87Q22.55-16.87 22.97-16.46 23.39-16.04 23.39-15.35L23.39-15.35 23.39-4.73Q23.39-0.24 18.94 0.1L18.94 0.1 18.18 0.14ZM34.65 0.14Q34.01 0.14 33.59-0.23 33.18-0.59 33.18-1.28L33.18-1.28 33.18-10.46Q33.18-11.15 33.59-11.5 34.01-11.86 34.65-11.86L34.65-11.86Q35.29-11.86 35.72-11.5 36.15-11.15 36.15-10.46L36.15-10.46 36.15-1.28Q36.15-0.59 35.72-0.23 35.29 0.14 34.65 0.14L34.65 0.14ZM34.65-13.98Q33.84-13.98 33.37-14.41 32.89-14.85 32.89-15.57L32.89-15.57Q32.89-16.28 33.37-16.71 33.84-17.14 34.65-17.14L34.65-17.14Q35.44-17.14 35.92-16.71 36.41-16.28 36.41-15.57L36.41-15.57Q36.41-14.85 35.94-14.41 35.46-13.98 34.65-13.98L34.65-13.98ZM45.97-11.91Q48.06-11.91 49.08-10.72 50.1-9.53 50.1-7.13L50.1-7.13 50.1-1.28Q50.1-0.62 49.71-0.24 49.32 0.14 48.63 0.14L48.63 0.14Q47.94 0.14 47.53-0.24 47.13-0.62 47.13-1.28L47.13-1.28 47.13-6.96Q47.13-8.32 46.62-8.94 46.11-9.55 45.01-9.55L45.01-9.55Q43.73-9.55 42.96-8.75 42.19-7.94 42.19-6.58L42.19-6.58 42.19-1.28Q42.19-0.62 41.78-0.24 41.38 0.14 40.69 0.14L40.69 0.14Q40 0.14 39.61-0.24 39.22-0.62 39.22-1.28L39.22-1.28 39.22-10.48Q39.22-11.1 39.62-11.48 40.02-11.86 40.71-11.86L40.71-11.86Q41.33-11.86 41.72-11.49 42.12-11.12 42.12-10.53L42.12-10.53 42.12-9.89Q42.71-10.86 43.71-11.38 44.71-11.91 45.97-11.91L45.97-11.91ZM59.16-2.07Q60.34-2 60.34-1L60.34-1Q60.34-0.43 59.88-0.13 59.42 0.17 58.56 0.12L58.56 0.12 57.92 0.07Q53.93-0.21 53.93-4.21L53.93-4.21 53.93-9.39 52.74-9.39Q52.1-9.39 51.75-9.67 51.41-9.96 51.41-10.51L51.41-10.51Q51.41-11.05 51.75-11.34 52.1-11.62 52.74-11.62L52.74-11.62 53.93-11.62 53.93-13.81Q53.93-14.45 54.33-14.83 54.74-15.21 55.42-15.21L55.42-15.21Q56.09-15.21 56.49-14.83 56.9-14.45 56.9-13.81L56.9-13.81 56.9-11.62 58.92-11.62Q59.56-11.62 59.9-11.34 60.25-11.05 60.25-10.51L60.25-10.51Q60.25-9.96 59.9-9.67 59.56-9.39 58.92-9.39L58.92-9.39 56.9-9.39 56.9-3.99Q56.9-2.23 58.51-2.12L58.51-2.12 59.16-2.07ZM71.09-3.18Q71.49-3.18 71.74-2.88 71.99-2.57 71.99-2.04L71.99-2.04Q71.99-1.31 71.11-0.81L71.11-0.81Q70.3-0.36 69.28-0.08 68.26 0.19 67.33 0.19L67.33 0.19Q64.53 0.19 62.89-1.43 61.25-3.04 61.25-5.85L61.25-5.85Q61.25-7.63 61.96-9.01 62.67-10.39 63.97-11.15 65.26-11.91 66.9-11.91L66.9-11.91Q68.47-11.91 69.64-11.22 70.8-10.53 71.44-9.27 72.09-8.01 72.09-6.3L72.09-6.3Q72.09-5.28 71.18-5.28L71.18-5.28 64.17-5.28Q64.31-3.64 65.1-2.86 65.88-2.09 67.38-2.09L67.38-2.09Q68.14-2.09 68.72-2.28 69.3-2.47 70.04-2.8L70.04-2.8Q70.75-3.18 71.09-3.18L71.09-3.18ZM66.98-9.82Q65.76-9.82 65.04-9.06 64.31-8.29 64.17-6.87L64.17-6.87 69.54-6.87Q69.49-8.32 68.83-9.07 68.16-9.82 66.98-9.82L66.98-9.82ZM81-11.86Q81.62-11.91 81.97-11.6 82.33-11.29 82.33-10.67L82.33-10.67Q82.33-10.03 82.02-9.72 81.71-9.41 80.9-9.32L80.9-9.32 80.19-9.25Q78.79-9.1 78.13-8.29 77.48-7.49 77.48-6.27L77.48-6.27 77.48-1.28Q77.48-0.59 77.05-0.23 76.63 0.14 75.98 0.14L75.98 0.14Q75.34 0.14 74.93-0.23 74.51-0.59 74.51-1.28L74.51-1.28 74.51-10.48Q74.51-11.15 74.93-11.5 75.34-11.86 75.96-11.86L75.96-11.86Q76.58-11.86 76.96-11.52 77.34-11.17 77.34-10.53L77.34-10.53 77.34-9.58Q77.79-10.62 78.68-11.19 79.57-11.76 80.67-11.84L80.67-11.84 81-11.86ZM90.36-11.91Q92.45-11.91 93.48-10.72 94.5-9.53 94.5-7.13L94.5-7.13 94.5-1.28Q94.5-0.62 94.11-0.24 93.71 0.14 93.02 0.14L93.02 0.14Q92.34 0.14 91.93-0.24 91.53-0.62 91.53-1.28L91.53-1.28 91.53-6.96Q91.53-8.32 91.02-8.94 90.51-9.55 89.41-9.55L89.41-9.55Q88.13-9.55 87.36-8.75 86.58-7.94 86.58-6.58L86.58-6.58 86.58-1.28Q86.58-0.62 86.18-0.24 85.78 0.14 85.09 0.14L85.09 0.14Q84.4 0.14 84-0.24 83.61-0.62 83.61-1.28L83.61-1.28 83.61-10.48Q83.61-11.1 84.02-11.48 84.42-11.86 85.11-11.86L85.11-11.86Q85.73-11.86 86.12-11.49 86.51-11.12 86.51-10.53L86.51-10.53 86.51-9.89Q87.11-10.86 88.1-11.38 89.1-11.91 90.36-11.91L90.36-11.91ZM102.55-11.91Q104.98-11.91 106.16-10.71 107.33-9.51 107.33-7.06L107.33-7.06 107.33-1.26Q107.33-0.62 106.95-0.25 106.57 0.12 105.91 0.12L105.91 0.12Q105.29 0.12 104.9-0.26 104.5-0.64 104.5-1.26L104.5-1.26 104.5-1.78Q104.1-0.86 103.23-0.33 102.36 0.19 101.22 0.19L101.22 0.19Q100.06 0.19 99.11-0.29 98.16-0.76 97.61-1.59 97.06-2.42 97.06-3.45L97.06-3.45Q97.06-4.73 97.72-5.47 98.37-6.2 99.85-6.54 101.32-6.87 103.91-6.87L103.91-6.87 104.5-6.87 104.5-7.42Q104.5-8.58 104-9.11 103.51-9.65 102.39-9.65L102.39-9.65Q101.7-9.65 100.99-9.45 100.27-9.25 99.3-8.87L99.3-8.87Q98.68-8.56 98.4-8.56L98.4-8.56Q97.97-8.56 97.69-8.87 97.42-9.17 97.42-9.67L97.42-9.67Q97.42-10.08 97.62-10.37 97.83-10.67 98.3-10.93L98.3-10.93Q99.13-11.38 100.29-11.65 101.44-11.91 102.55-11.91L102.55-11.91ZM101.82-1.95Q103.01-1.95 103.76-2.75 104.5-3.54 104.5-4.8L104.5-4.8 104.5-5.3 104.08-5.3Q102.48-5.3 101.6-5.16 100.72-5.01 100.34-4.66 99.96-4.3 99.96-3.68L99.96-3.68Q99.96-2.92 100.5-2.44 101.03-1.95 101.82-1.95L101.82-1.95ZM116.39-2.07Q117.58-2 117.58-1L117.58-1Q117.58-0.43 117.11-0.13 116.65 0.17 115.79 0.12L115.79 0.12 115.15 0.07Q111.16-0.21 111.16-4.21L111.16-4.21 111.16-9.39 109.97-9.39Q109.33-9.39 108.98-9.67 108.64-9.96 108.64-10.51L108.64-10.51Q108.64-11.05 108.98-11.34 109.33-11.62 109.97-11.62L109.97-11.62 111.16-11.62 111.16-13.81Q111.16-14.45 111.56-14.83 111.97-15.21 112.66-15.21L112.66-15.21Q113.32-15.21 113.73-14.83 114.13-14.45 114.13-13.81L114.13-13.81 114.13-11.62 116.15-11.62Q116.79-11.62 117.14-11.34 117.48-11.05 117.48-10.51L117.48-10.51Q117.48-9.96 117.14-9.67 116.79-9.39 116.15-9.39L116.15-9.39 114.13-9.39 114.13-3.99Q114.13-2.23 115.75-2.12L115.75-2.12 116.39-2.07ZM120.59 0.14Q119.95 0.14 119.54-0.23 119.12-0.59 119.12-1.28L119.12-1.28 119.12-10.46Q119.12-11.15 119.54-11.5 119.95-11.86 120.59-11.86L120.59-11.86Q121.24-11.86 121.66-11.5 122.09-11.15 122.09-10.46L122.09-10.46 122.09-1.28Q122.09-0.59 121.66-0.23 121.24 0.14 120.59 0.14L120.59 0.14ZM120.59-13.98Q119.79-13.98 119.31-14.41 118.84-14.85 118.84-15.57L118.84-15.57Q118.84-16.28 119.31-16.71 119.79-17.14 120.59-17.14L120.59-17.14Q121.38-17.14 121.87-16.71 122.35-16.28 122.35-15.57L122.35-15.57Q122.35-14.85 121.88-14.41 121.4-13.98 120.59-13.98L120.59-13.98ZM130.46 0.19Q128.67 0.19 127.33-0.55 125.99-1.28 125.25-2.66 124.52-4.04 124.52-5.87L124.52-5.87Q124.52-7.7 125.25-9.07 125.99-10.43 127.33-11.17 128.67-11.91 130.46-11.91L130.46-11.91Q132.24-11.91 133.58-11.17 134.93-10.43 135.65-9.07 136.38-7.7 136.38-5.87L136.38-5.87Q136.38-4.04 135.65-2.66 134.93-1.28 133.58-0.55 132.24 0.19 130.46 0.19L130.46 0.19ZM130.43-2.12Q131.88-2.12 132.64-3.07 133.4-4.02 133.4-5.87L133.4-5.87Q133.4-7.7 132.64-8.66 131.88-9.63 130.46-9.63L130.46-9.63Q129.03-9.63 128.26-8.66 127.49-7.7 127.49-5.87L127.49-5.87Q127.49-4.02 128.25-3.07 129.01-2.12 130.43-2.12L130.43-2.12ZM145.57-11.91Q147.66-11.91 148.69-10.72 149.71-9.53 149.71-7.13L149.71-7.13 149.71-1.28Q149.71-0.62 149.32-0.24 148.92 0.14 148.24 0.14L148.24 0.14Q147.55 0.14 147.14-0.24 146.74-0.62 146.74-1.28L146.74-1.28 146.74-6.96Q146.74-8.32 146.23-8.94 145.72-9.55 144.62-9.55L144.62-9.55Q143.34-9.55 142.57-8.75 141.79-7.94 141.79-6.58L141.79-6.58 141.79-1.28Q141.79-0.62 141.39-0.24 140.99 0.14 140.3 0.14L140.3 0.14Q139.61 0.14 139.22-0.24 138.82-0.62 138.82-1.28L138.82-1.28 138.82-10.48Q138.82-11.1 139.23-11.48 139.63-11.86 140.32-11.86L140.32-11.86Q140.94-11.86 141.33-11.49 141.72-11.12 141.72-10.53L141.72-10.53 141.72-9.89Q142.32-10.86 143.32-11.38 144.31-11.91 145.57-11.91L145.57-11.91ZM157.77-11.91Q160.19-11.91 161.37-10.71 162.54-9.51 162.54-7.06L162.54-7.06 162.54-1.26Q162.54-0.62 162.16-0.25 161.78 0.12 161.12 0.12L161.12 0.12Q160.5 0.12 160.11-0.26 159.71-0.64 159.71-1.26L159.71-1.26 159.71-1.78Q159.31-0.86 158.44-0.33 157.58 0.19 156.43 0.19L156.43 0.19Q155.27 0.19 154.32-0.29 153.37-0.76 152.82-1.59 152.28-2.42 152.28-3.45L152.28-3.45Q152.28-4.73 152.93-5.47 153.58-6.2 155.06-6.54 156.53-6.87 159.12-6.87L159.12-6.87 159.71-6.87 159.71-7.42Q159.71-8.58 159.22-9.11 158.72-9.65 157.6-9.65L157.6-9.65Q156.91-9.65 156.2-9.45 155.48-9.25 154.51-8.87L154.51-8.87Q153.89-8.56 153.61-8.56L153.61-8.56Q153.18-8.56 152.91-8.87 152.63-9.17 152.63-9.67L152.63-9.67Q152.63-10.08 152.83-10.37 153.04-10.67 153.51-10.93L153.51-10.93Q154.34-11.38 155.5-11.65 156.65-11.91 157.77-11.91L157.77-11.91ZM157.03-1.95Q158.22-1.95 158.97-2.75 159.71-3.54 159.71-4.8L159.71-4.8 159.71-5.3 159.29-5.3Q157.69-5.3 156.82-5.16 155.94-5.01 155.56-4.66 155.18-4.3 155.18-3.68L155.18-3.68Q155.18-2.92 155.71-2.44 156.24-1.95 157.03-1.95L157.03-1.95ZM167.04 0.14Q166.39 0.14 165.98-0.23 165.56-0.59 165.56-1.28L165.56-1.28 165.56-15.47Q165.56-16.16 165.98-16.52 166.39-16.87 167.04-16.87L167.04-16.87Q167.68-16.87 168.1-16.52 168.53-16.16 168.53-15.47L168.53-15.47 168.53-1.28Q168.53-0.59 168.1-0.23 167.68 0.14 167.04 0.14L167.04 0.14Z" transform="translate(-1.809999942779541, 17.139999389648438)"></path></g> <!----> <!----> <!----> <!----> <!----> <!----> <!----></g></g> <!----></g></g></g><defs v-gra="od"></defs><mask id="16ff8aa2-5452-4df8-941c-3acdb72aff04"><circle data-gra="graph-name" cx="93.80913987207317" cy="93.80913987207317" r="93.80913987207317" fill="white"></circle> <g transform="translate(10.449139261721612,85.14413991022015)" fill="black"><g data-gra="path-name" fill-rule="" class="tp-name"><g transform="scale(1)"><g><path d="M15.21-1.93Q15.5-1.5 15.5-1.09L15.5-1.09Q15.5-0.55 15.06-0.19 14.62 0.17 14.02 0.17L14.02 0.17Q13.64 0.17 13.3-0.01 12.95-0.19 12.72-0.55L12.72-0.55 9.55-5.35Q9.08-6.11 8.54-6.42 8.01-6.73 7.15-6.73L7.15-6.73 4.82-6.73 4.82-1.4Q4.82-0.69 4.42-0.27 4.02 0.14 3.33 0.14L3.33 0.14Q2.64 0.14 2.22-0.27 1.81-0.69 1.81-1.4L1.81-1.4 1.81-15.31Q1.81-16 2.2-16.38 2.59-16.76 3.28-16.76L3.28-16.76 9.22-16.76Q12.07-16.76 13.56-15.48 15.04-14.21 15.04-11.81L15.04-11.81Q15.04-9.86 13.94-8.62 12.83-7.37 10.81-7.01L10.81-7.01Q11.5-6.84 12.03-6.42 12.55-5.99 13.05-5.23L13.05-5.23 15.21-1.93ZM8.79-9.08Q10.53-9.08 11.34-9.73 12.14-10.39 12.14-11.74L12.14-11.74Q12.14-13.12 11.34-13.75 10.53-14.38 8.79-14.38L8.79-14.38 4.8-14.38 4.8-9.08 8.79-9.08ZM18.18 0.14Q16.35 0.21 16.35-1.12L16.35-1.12Q16.35-1.69 16.65-1.98 16.95-2.28 17.59-2.33L17.59-2.33 18.35-2.38Q19.32-2.42 19.82-2.99 20.32-3.57 20.32-4.73L20.32-4.73 20.32-15.35Q20.32-16.04 20.74-16.46 21.15-16.87 21.84-16.87L21.84-16.87Q22.55-16.87 22.97-16.46 23.39-16.04 23.39-15.35L23.39-15.35 23.39-4.73Q23.39-0.24 18.94 0.1L18.94 0.1 18.18 0.14ZM34.65 0.14Q34.01 0.14 33.59-0.23 33.18-0.59 33.18-1.28L33.18-1.28 33.18-10.46Q33.18-11.15 33.59-11.5 34.01-11.86 34.65-11.86L34.65-11.86Q35.29-11.86 35.72-11.5 36.15-11.15 36.15-10.46L36.15-10.46 36.15-1.28Q36.15-0.59 35.72-0.23 35.29 0.14 34.65 0.14L34.65 0.14ZM34.65-13.98Q33.84-13.98 33.37-14.41 32.89-14.85 32.89-15.57L32.89-15.57Q32.89-16.28 33.37-16.71 33.84-17.14 34.65-17.14L34.65-17.14Q35.44-17.14 35.92-16.71 36.41-16.28 36.41-15.57L36.41-15.57Q36.41-14.85 35.94-14.41 35.46-13.98 34.65-13.98L34.65-13.98ZM45.97-11.91Q48.06-11.91 49.08-10.72 50.1-9.53 50.1-7.13L50.1-7.13 50.1-1.28Q50.1-0.62 49.71-0.24 49.32 0.14 48.63 0.14L48.63 0.14Q47.94 0.14 47.53-0.24 47.13-0.62 47.13-1.28L47.13-1.28 47.13-6.96Q47.13-8.32 46.62-8.94 46.11-9.55 45.01-9.55L45.01-9.55Q43.73-9.55 42.96-8.75 42.19-7.94 42.19-6.58L42.19-6.58 42.19-1.28Q42.19-0.62 41.78-0.24 41.38 0.14 40.69 0.14L40.69 0.14Q40 0.14 39.61-0.24 39.22-0.62 39.22-1.28L39.22-1.28 39.22-10.48Q39.22-11.1 39.62-11.48 40.02-11.86 40.71-11.86L40.71-11.86Q41.33-11.86 41.72-11.49 42.12-11.12 42.12-10.53L42.12-10.53 42.12-9.89Q42.71-10.86 43.71-11.38 44.71-11.91 45.97-11.91L45.97-11.91ZM59.16-2.07Q60.34-2 60.34-1L60.34-1Q60.34-0.43 59.88-0.13 59.42 0.17 58.56 0.12L58.56 0.12 57.92 0.07Q53.93-0.21 53.93-4.21L53.93-4.21 53.93-9.39 52.74-9.39Q52.1-9.39 51.75-9.67 51.41-9.96 51.41-10.51L51.41-10.51Q51.41-11.05 51.75-11.34 52.1-11.62 52.74-11.62L52.74-11.62 53.93-11.62 53.93-13.81Q53.93-14.45 54.33-14.83 54.74-15.21 55.42-15.21L55.42-15.21Q56.09-15.21 56.49-14.83 56.9-14.45 56.9-13.81L56.9-13.81 56.9-11.62 58.92-11.62Q59.56-11.62 59.9-11.34 60.25-11.05 60.25-10.51L60.25-10.51Q60.25-9.96 59.9-9.67 59.56-9.39 58.92-9.39L58.92-9.39 56.9-9.39 56.9-3.99Q56.9-2.23 58.51-2.12L58.51-2.12 59.16-2.07ZM71.09-3.18Q71.49-3.18 71.74-2.88 71.99-2.57 71.99-2.04L71.99-2.04Q71.99-1.31 71.11-0.81L71.11-0.81Q70.3-0.36 69.28-0.08 68.26 0.19 67.33 0.19L67.33 0.19Q64.53 0.19 62.89-1.43 61.25-3.04 61.25-5.85L61.25-5.85Q61.25-7.63 61.96-9.01 62.67-10.39 63.97-11.15 65.26-11.91 66.9-11.91L66.9-11.91Q68.47-11.91 69.64-11.22 70.8-10.53 71.44-9.27 72.09-8.01 72.09-6.3L72.09-6.3Q72.09-5.28 71.18-5.28L71.18-5.28 64.17-5.28Q64.31-3.64 65.1-2.86 65.88-2.09 67.38-2.09L67.38-2.09Q68.14-2.09 68.72-2.28 69.3-2.47 70.04-2.8L70.04-2.8Q70.75-3.18 71.09-3.18L71.09-3.18ZM66.98-9.82Q65.76-9.82 65.04-9.06 64.31-8.29 64.17-6.87L64.17-6.87 69.54-6.87Q69.49-8.32 68.83-9.07 68.16-9.82 66.98-9.82L66.98-9.82ZM81-11.86Q81.62-11.91 81.97-11.6 82.33-11.29 82.33-10.67L82.33-10.67Q82.33-10.03 82.02-9.72 81.71-9.41 80.9-9.32L80.9-9.32 80.19-9.25Q78.79-9.1 78.13-8.29 77.48-7.49 77.48-6.27L77.48-6.27 77.48-1.28Q77.48-0.59 77.05-0.23 76.63 0.14 75.98 0.14L75.98 0.14Q75.34 0.14 74.93-0.23 74.51-0.59 74.51-1.28L74.51-1.28 74.51-10.48Q74.51-11.15 74.93-11.5 75.34-11.86 75.96-11.86L75.96-11.86Q76.58-11.86 76.96-11.52 77.34-11.17 77.34-10.53L77.34-10.53 77.34-9.58Q77.79-10.62 78.68-11.19 79.57-11.76 80.67-11.84L80.67-11.84 81-11.86ZM90.36-11.91Q92.45-11.91 93.48-10.72 94.5-9.53 94.5-7.13L94.5-7.13 94.5-1.28Q94.5-0.62 94.11-0.24 93.71 0.14 93.02 0.14L93.02 0.14Q92.34 0.14 91.93-0.24 91.53-0.62 91.53-1.28L91.53-1.28 91.53-6.96Q91.53-8.32 91.02-8.94 90.51-9.55 89.41-9.55L89.41-9.55Q88.13-9.55 87.36-8.75 86.58-7.94 86.58-6.58L86.58-6.58 86.58-1.28Q86.58-0.62 86.18-0.24 85.78 0.14 85.09 0.14L85.09 0.14Q84.4 0.14 84-0.24 83.61-0.62 83.61-1.28L83.61-1.28 83.61-10.48Q83.61-11.1 84.02-11.48 84.42-11.86 85.11-11.86L85.11-11.86Q85.73-11.86 86.12-11.49 86.51-11.12 86.51-10.53L86.51-10.53 86.51-9.89Q87.11-10.86 88.1-11.38 89.1-11.91 90.36-11.91L90.36-11.91ZM102.55-11.91Q104.98-11.91 106.16-10.71 107.33-9.51 107.33-7.06L107.33-7.06 107.33-1.26Q107.33-0.62 106.95-0.25 106.57 0.12 105.91 0.12L105.91 0.12Q105.29 0.12 104.9-0.26 104.5-0.64 104.5-1.26L104.5-1.26 104.5-1.78Q104.1-0.86 103.23-0.33 102.36 0.19 101.22 0.19L101.22 0.19Q100.06 0.19 99.11-0.29 98.16-0.76 97.61-1.59 97.06-2.42 97.06-3.45L97.06-3.45Q97.06-4.73 97.72-5.47 98.37-6.2 99.85-6.54 101.32-6.87 103.91-6.87L103.91-6.87 104.5-6.87 104.5-7.42Q104.5-8.58 104-9.11 103.51-9.65 102.39-9.65L102.39-9.65Q101.7-9.65 100.99-9.45 100.27-9.25 99.3-8.87L99.3-8.87Q98.68-8.56 98.4-8.56L98.4-8.56Q97.97-8.56 97.69-8.87 97.42-9.17 97.42-9.67L97.42-9.67Q97.42-10.08 97.62-10.37 97.83-10.67 98.3-10.93L98.3-10.93Q99.13-11.38 100.29-11.65 101.44-11.91 102.55-11.91L102.55-11.91ZM101.82-1.95Q103.01-1.95 103.76-2.75 104.5-3.54 104.5-4.8L104.5-4.8 104.5-5.3 104.08-5.3Q102.48-5.3 101.6-5.16 100.72-5.01 100.34-4.66 99.96-4.3 99.96-3.68L99.96-3.68Q99.96-2.92 100.5-2.44 101.03-1.95 101.82-1.95L101.82-1.95ZM116.39-2.07Q117.58-2 117.58-1L117.58-1Q117.58-0.43 117.11-0.13 116.65 0.17 115.79 0.12L115.79 0.12 115.15 0.07Q111.16-0.21 111.16-4.21L111.16-4.21 111.16-9.39 109.97-9.39Q109.33-9.39 108.98-9.67 108.64-9.96 108.64-10.51L108.64-10.51Q108.64-11.05 108.98-11.34 109.33-11.62 109.97-11.62L109.97-11.62 111.16-11.62 111.16-13.81Q111.16-14.45 111.56-14.83 111.97-15.21 112.66-15.21L112.66-15.21Q113.32-15.21 113.73-14.83 114.13-14.45 114.13-13.81L114.13-13.81 114.13-11.62 116.15-11.62Q116.79-11.62 117.14-11.34 117.48-11.05 117.48-10.51L117.48-10.51Q117.48-9.96 117.14-9.67 116.79-9.39 116.15-9.39L116.15-9.39 114.13-9.39 114.13-3.99Q114.13-2.23 115.75-2.12L115.75-2.12 116.39-2.07ZM120.59 0.14Q119.95 0.14 119.54-0.23 119.12-0.59 119.12-1.28L119.12-1.28 119.12-10.46Q119.12-11.15 119.54-11.5 119.95-11.86 120.59-11.86L120.59-11.86Q121.24-11.86 121.66-11.5 122.09-11.15 122.09-10.46L122.09-10.46 122.09-1.28Q122.09-0.59 121.66-0.23 121.24 0.14 120.59 0.14L120.59 0.14ZM120.59-13.98Q119.79-13.98 119.31-14.41 118.84-14.85 118.84-15.57L118.84-15.57Q118.84-16.28 119.31-16.71 119.79-17.14 120.59-17.14L120.59-17.14Q121.38-17.14 121.87-16.71 122.35-16.28 122.35-15.57L122.35-15.57Q122.35-14.85 121.88-14.41 121.4-13.98 120.59-13.98L120.59-13.98ZM130.46 0.19Q128.67 0.19 127.33-0.55 125.99-1.28 125.25-2.66 124.52-4.04 124.52-5.87L124.52-5.87Q124.52-7.7 125.25-9.07 125.99-10.43 127.33-11.17 128.67-11.91 130.46-11.91L130.46-11.91Q132.24-11.91 133.58-11.17 134.93-10.43 135.65-9.07 136.38-7.7 136.38-5.87L136.38-5.87Q136.38-4.04 135.65-2.66 134.93-1.28 133.58-0.55 132.24 0.19 130.46 0.19L130.46 0.19ZM130.43-2.12Q131.88-2.12 132.64-3.07 133.4-4.02 133.4-5.87L133.4-5.87Q133.4-7.7 132.64-8.66 131.88-9.63 130.46-9.63L130.46-9.63Q129.03-9.63 128.26-8.66 127.49-7.7 127.49-5.87L127.49-5.87Q127.49-4.02 128.25-3.07 129.01-2.12 130.43-2.12L130.43-2.12ZM145.57-11.91Q147.66-11.91 148.69-10.72 149.71-9.53 149.71-7.13L149.71-7.13 149.71-1.28Q149.71-0.62 149.32-0.24 148.92 0.14 148.24 0.14L148.24 0.14Q147.55 0.14 147.14-0.24 146.74-0.62 146.74-1.28L146.74-1.28 146.74-6.96Q146.74-8.32 146.23-8.94 145.72-9.55 144.62-9.55L144.62-9.55Q143.34-9.55 142.57-8.75 141.79-7.94 141.79-6.58L141.79-6.58 141.79-1.28Q141.79-0.62 141.39-0.24 140.99 0.14 140.3 0.14L140.3 0.14Q139.61 0.14 139.22-0.24 138.82-0.62 138.82-1.28L138.82-1.28 138.82-10.48Q138.82-11.1 139.23-11.48 139.63-11.86 140.32-11.86L140.32-11.86Q140.94-11.86 141.33-11.49 141.72-11.12 141.72-10.53L141.72-10.53 141.72-9.89Q142.32-10.86 143.32-11.38 144.31-11.91 145.57-11.91L145.57-11.91ZM157.77-11.91Q160.19-11.91 161.37-10.71 162.54-9.51 162.54-7.06L162.54-7.06 162.54-1.26Q162.54-0.62 162.16-0.25 161.78 0.12 161.12 0.12L161.12 0.12Q160.5 0.12 160.11-0.26 159.71-0.64 159.71-1.26L159.71-1.26 159.71-1.78Q159.31-0.86 158.44-0.33 157.58 0.19 156.43 0.19L156.43 0.19Q155.27 0.19 154.32-0.29 153.37-0.76 152.82-1.59 152.28-2.42 152.28-3.45L152.28-3.45Q152.28-4.73 152.93-5.47 153.58-6.2 155.06-6.54 156.53-6.87 159.12-6.87L159.12-6.87 159.71-6.87 159.71-7.42Q159.71-8.58 159.22-9.11 158.72-9.65 157.6-9.65L157.6-9.65Q156.91-9.65 156.2-9.45 155.48-9.25 154.51-8.87L154.51-8.87Q153.89-8.56 153.61-8.56L153.61-8.56Q153.18-8.56 152.91-8.87 152.63-9.17 152.63-9.67L152.63-9.67Q152.63-10.08 152.83-10.37 153.04-10.67 153.51-10.93L153.51-10.93Q154.34-11.38 155.5-11.65 156.65-11.91 157.77-11.91L157.77-11.91ZM157.03-1.95Q158.22-1.95 158.97-2.75 159.71-3.54 159.71-4.8L159.71-4.8 159.71-5.3 159.29-5.3Q157.69-5.3 156.82-5.16 155.94-5.01 155.56-4.66 155.18-4.3 155.18-3.68L155.18-3.68Q155.18-2.92 155.71-2.44 156.24-1.95 157.03-1.95L157.03-1.95ZM167.04 0.14Q166.39 0.14 165.98-0.23 165.56-0.59 165.56-1.28L165.56-1.28 165.56-15.47Q165.56-16.16 165.98-16.52 166.39-16.87 167.04-16.87L167.04-16.87Q167.68-16.87 168.1-16.52 168.53-16.16 168.53-15.47L168.53-15.47 168.53-1.28Q168.53-0.59 168.1-0.23 167.68 0.14 167.04 0.14L167.04 0.14Z" transform="translate(-1.809999942779541, 17.139999389648438)"></path></g>       </g></g> </g></mask></svg>